<svg width="24" height="25" viewBox="0 0 24 25" fill="none" xmlns="http://www.w3.org/2000/svg">
<path fill-rule="evenodd" clip-rule="evenodd" d="M12 2.50001C14.54 2.49689 16.9854 3.46332 18.837 5.20201L19.071 5.42901C20.0009 6.35659 20.7384 7.45878 21.241 8.67225C21.7437 9.88572 22.0016 11.1866 22 12.5C22 18.023 17.523 22.5 12 22.5C6.477 22.5 2 18.023 2 12.5C2 6.97701 6.477 2.50001 12 2.50001ZM13 4.56201V5.50001C13 5.76522 12.8946 6.01958 12.7071 6.20711C12.5196 6.39465 12.2652 6.50001 12 6.50001C11.7348 6.50001 11.4804 6.39465 11.2929 6.20711C11.1054 6.01958 11 5.76522 11 5.50001V4.56201C9.57595 4.73939 8.22635 5.29844 7.094 6.18001L7.757 6.84301C7.85251 6.93525 7.92869 7.0456 7.9811 7.1676C8.03351 7.28961 8.0611 7.42083 8.06225 7.55361C8.0634 7.68639 8.0381 7.81807 7.98782 7.94096C7.93754 8.06386 7.86329 8.17551 7.76939 8.2694C7.6755 8.3633 7.56385 8.43755 7.44095 8.48783C7.31806 8.53811 7.18638 8.56341 7.0536 8.56226C6.92082 8.5611 6.7896 8.53352 6.6676 8.48111C6.54559 8.4287 6.43525 8.35252 6.343 8.25701L5.68 7.59401C4.79843 8.72636 4.23938 10.076 4.062 11.5H5C5.26522 11.5 5.51957 11.6054 5.70711 11.7929C5.89464 11.9804 6 12.2348 6 12.5C6 12.7652 5.89464 13.0196 5.70711 13.2071C5.51957 13.3947 5.26522 13.5 5 13.5H4.062C4.30603 15.4331 5.24708 17.2107 6.70857 18.4993C8.17007 19.7879 10.0516 20.4989 12 20.4989C13.9484 20.4989 15.8299 19.7879 17.2914 18.4993C18.7529 17.2107 19.694 15.4331 19.938 13.5H19C18.7348 13.5 18.4804 13.3947 18.2929 13.2071C18.1054 13.0196 18 12.7652 18 12.5C18 12.2348 18.1054 11.9804 18.2929 11.7929C18.4804 11.6054 18.7348 11.5 19 11.5H19.938C19.7606 10.076 19.2016 8.72636 18.32 7.59401L14.708 11.207C15.013 11.8456 15.0825 12.5715 14.9041 13.2563C14.7257 13.9412 14.3109 14.5409 13.7331 14.9495C13.1553 15.3581 12.4516 15.5493 11.7464 15.4892C11.0413 15.4292 10.3801 15.1218 9.87964 14.6214C9.37922 14.1209 9.07182 13.4597 9.01178 12.7546C8.95174 12.0494 9.14291 11.3458 9.55152 10.7679C9.96012 10.1901 10.5599 9.77534 11.2447 9.59693C11.9295 9.41853 12.6554 9.48798 13.294 9.79301L16.906 6.18001C15.7737 5.29844 14.424 4.73939 13 4.56201ZM12 11.5C11.7348 11.5 11.4804 11.6054 11.2929 11.7929C11.1054 11.9804 11 12.2348 11 12.5C11 12.7652 11.1054 13.0196 11.2929 13.2071C11.4804 13.3947 11.7348 13.5 12 13.5C12.2652 13.5 12.5196 13.3947 12.7071 13.2071C12.8946 13.0196 13 12.7652 13 12.5C13 12.2348 12.8946 11.9804 12.7071 11.7929C12.5196 11.6054 12.2652 11.5 12 11.5Z" fill="currentColor"/>
</svg>
