<svg width="24" height="25" viewBox="0 0 24 25" fill="none" xmlns="http://www.w3.org/2000/svg">
<path d="M3 8.5V6.5C3 5.96957 3.21071 5.46086 3.58579 5.08579C3.96086 4.71071 4.46957 4.5 5 4.5H19C19.5304 4.5 20.0391 4.71071 20.4142 5.08579C20.7893 5.46086 21 5.96957 21 6.5V8.5M3 8.5V14.5M3 8.5H9M21 8.5V14.5M21 8.5H9M3 14.5V18.5C3 19.0304 3.21071 19.5391 3.58579 19.9142C3.96086 20.2893 4.46957 20.5 5 20.5H9M3 14.5H9M9 8.5V14.5M21 14.5V18.5C21 19.0304 20.7893 19.5391 20.4142 19.9142C20.0391 20.2893 19.5304 20.5 19 20.5H9M21 14.5H9M9 20.5V14.5M15 8.5V20.5" stroke="currentColor" stroke-width="2" stroke-linecap="round" stroke-linejoin="round"/>
</svg>
