<svg width="24" height="25" viewBox="0 0 24 25" fill="none" xmlns="http://www.w3.org/2000/svg">
<path d="M2 5.77L3.28 4.5L20 21.22L18.73 22.5L15.65 19.42C14.5 19.8 13.28 20 12 20C7 20 2.73 16.89 1 12.5C1.69 10.74 2.79 9.19 4.19 7.96L2 5.77ZM12 9.5C12.7956 9.5 13.5587 9.81607 14.1213 10.3787C14.6839 10.9413 15 11.7044 15 12.5C15.0005 12.8406 14.943 13.1787 14.83 13.5L11 9.67C11.3213 9.55698 11.6594 9.49949 12 9.5ZM12 5C17 5 21.27 8.11 23 12.5C22.1834 14.5729 20.7966 16.3723 19 17.69L17.58 16.26C18.9629 15.3034 20.0783 14.0091 20.82 12.5C20.0117 10.8499 18.7565 9.45963 17.1974 8.48735C15.6382 7.51508 13.8375 6.99976 12 7C10.91 7 9.84 7.18 8.84 7.5L7.3 5.97C8.74 5.35 10.33 5 12 5ZM3.18 12.5C3.98835 14.1501 5.24346 15.5404 6.80264 16.5126C8.36182 17.4849 10.1625 18.0002 12 18C12.69 18 13.37 17.93 14 17.79L11.72 15.5C11.0242 15.4254 10.3748 15.1149 9.87997 14.62C9.38512 14.1252 9.07458 13.4758 9 12.78L5.6 9.37C4.61 10.22 3.78 11.28 3.18 12.5Z" fill="#284C3C"/>
</svg>
