<svg width="25" height="25" viewBox="0 0 25 25" fill="none" xmlns="http://www.w3.org/2000/svg">
<path d="M12.4982 6.76514C11.3643 6.76514 10.2559 7.10138 9.31309 7.73134C8.37029 8.3613 7.63547 9.25668 7.20155 10.3043C6.76763 11.3518 6.65409 12.5046 6.8753 13.6167C7.09652 14.7288 7.64254 15.7503 8.44432 16.5521C9.2461 17.3539 10.2676 17.8999 11.3797 18.1211C12.4918 18.3423 13.6446 18.2288 14.6922 17.7949C15.7397 17.3609 16.6351 16.6261 17.2651 15.6833C17.895 14.7405 18.2313 13.6321 18.2313 12.4982C18.2297 10.9782 17.6252 9.52088 16.5504 8.44607C15.4755 7.37125 14.0182 6.76673 12.4982 6.76514ZM12.4982 16.3203C11.7423 16.3203 11.0033 16.0961 10.3748 15.6761C9.74626 15.2561 9.25638 14.6592 8.9671 13.9608C8.67782 13.2625 8.60213 12.494 8.74961 11.7526C8.89708 11.0112 9.26109 10.3301 9.79562 9.79562C10.3301 9.26109 11.0112 8.89708 11.7526 8.74961C12.494 8.60213 13.2625 8.67782 13.9608 8.9671C14.6592 9.25638 15.2561 9.74626 15.6761 10.3748C16.0961 11.0033 16.3203 11.7423 16.3203 12.4982C16.3203 13.5119 15.9176 14.484 15.2008 15.2008C14.484 15.9176 13.5119 16.3203 12.4982 16.3203ZM23.0088 12.7562C23.0136 12.5842 23.0136 12.4122 23.0088 12.2402L24.7909 10.0139C24.8843 9.89699 24.949 9.75978 24.9797 9.61332C25.0104 9.46685 25.0062 9.31522 24.9676 9.17064C24.6755 8.07252 24.2385 7.01817 23.6681 6.03537C23.5934 5.90676 23.4898 5.79735 23.3654 5.71586C23.241 5.63437 23.0992 5.58305 22.9515 5.56598L20.1184 5.25066C20.0006 5.12644 19.8811 5.007 19.7601 4.89234L19.4257 2.05209C19.4085 1.90424 19.357 1.76245 19.2753 1.63803C19.1936 1.51361 19.0839 1.41 18.9551 1.33546C17.9719 0.766134 16.9176 0.329569 15.8198 0.0371552C15.6751 -0.00130778 15.5234 -0.00524174 15.377 0.0256703C15.2305 0.0565824 15.0934 0.121476 14.9766 0.215119L12.7562 1.98759H12.2402L10.0139 0.209147C9.89699 0.115708 9.75978 0.0510315 9.61332 0.0203277C9.46685 -0.0103761 9.31522 -0.00624878 9.17064 0.0323775C8.0727 0.325035 7.01842 0.762009 6.03537 1.33187C5.90676 1.40655 5.79735 1.51022 5.71586 1.63464C5.63437 1.75905 5.58305 1.90076 5.56598 2.0485L5.25066 4.88637C5.12644 5.00501 5.007 5.12445 4.89234 5.24469L2.05209 5.57076C1.90424 5.58796 1.76245 5.63946 1.63803 5.72116C1.51361 5.80287 1.41 5.91251 1.33546 6.04135C0.766134 7.02452 0.329569 8.07878 0.0371552 9.17661C-0.00130778 9.32128 -0.00524174 9.47297 0.0256703 9.61944C0.0565824 9.76591 0.121476 9.90306 0.215119 10.0199L1.98759 12.2402V12.7562L0.209147 14.9825C0.115708 15.0994 0.0510315 15.2366 0.0203277 15.3831C-0.0103761 15.5296 -0.00624878 15.6812 0.0323775 15.8258C0.324499 16.9239 0.761502 17.9782 1.33187 18.961C1.40655 19.0897 1.51022 19.1991 1.63464 19.2806C1.75905 19.362 1.90076 19.4134 2.0485 19.4304L4.88159 19.7458C5.00024 19.87 5.11968 19.9894 5.23991 20.1041L5.57076 22.9443C5.58796 23.0922 5.63946 23.234 5.72116 23.3584C5.80287 23.4828 5.91251 23.5864 6.04135 23.661C7.02452 24.2303 8.07878 24.6668 9.17661 24.9593C9.32128 24.9977 9.47297 25.0017 9.61944 24.9707C9.76591 24.9398 9.90306 24.8749 10.0199 24.7813L12.2402 23.0088C12.4122 23.0136 12.5842 23.0136 12.7562 23.0088L14.9825 24.7909C15.0994 24.8843 15.2366 24.949 15.3831 24.9797C15.5296 25.0104 15.6812 25.0062 15.8258 24.9676C16.9239 24.6755 17.9782 24.2385 18.961 23.6681C19.0897 23.5934 19.1991 23.4898 19.2806 23.3654C19.362 23.241 19.4134 23.0992 19.4304 22.9515L19.7458 20.1184C19.87 20.0006 19.9894 19.8811 20.1041 19.7601L22.9443 19.4257C23.0922 19.4085 23.234 19.357 23.3584 19.2753C23.4828 19.1936 23.5864 19.0839 23.661 18.9551C24.2303 17.9719 24.6668 16.9176 24.9593 15.8198C24.9977 15.6751 25.0017 15.5234 24.9707 15.377C24.9398 15.2305 24.8749 15.0934 24.7813 14.9766L23.0088 12.7562ZM21.0859 11.9798C21.1061 12.3251 21.1061 12.6713 21.0859 13.0166C21.0716 13.253 21.1457 13.4862 21.2937 13.6711L22.9885 15.7887C22.794 16.4068 22.545 17.0063 22.2444 17.5803L19.5451 17.8861C19.31 17.9122 19.093 18.0245 18.936 18.2014C18.7061 18.46 18.4612 18.7049 18.2026 18.9348C18.0257 19.0918 17.9134 19.3088 17.8873 19.5439L17.5875 22.2408C17.0136 22.5416 16.414 22.7906 15.7959 22.9849L13.6771 21.2901C13.5075 21.1546 13.2969 21.0809 13.0799 21.0811H13.0225C12.6773 21.1014 12.3311 21.1014 11.9858 21.0811C11.7494 21.0669 11.5162 21.1409 11.3313 21.2889L9.20767 22.9849C8.58962 22.7904 7.99007 22.5414 7.41609 22.2408L7.11032 19.5451C7.08423 19.31 6.97188 19.093 6.795 18.936C6.53641 18.7061 6.29154 18.4612 6.06165 18.2026C5.90463 18.0257 5.68759 17.9134 5.45251 17.8873L2.75558 17.5863C2.45481 17.0124 2.2058 16.4128 2.01148 15.7947L3.70632 13.6759C3.85431 13.491 3.92837 13.2577 3.91414 13.0214C3.89385 12.6761 3.89385 12.3299 3.91414 11.9846C3.92837 11.7482 3.85431 11.515 3.70632 11.3301L2.01148 9.20767C2.20597 8.58962 2.45499 7.99007 2.75558 7.41609L5.45132 7.11032C5.68639 7.08423 5.90343 6.97188 6.06046 6.795C6.29034 6.53641 6.53521 6.29154 6.79381 6.06165C6.97139 5.90452 7.0842 5.68699 7.11032 5.45132L7.41011 2.75558C7.98402 2.45481 8.58358 2.2058 9.2017 2.01148L11.3205 3.70632C11.5054 3.85431 11.7387 3.92837 11.9751 3.91414C12.3203 3.89385 12.6665 3.89385 13.0118 3.91414C13.2482 3.92837 13.4814 3.85431 13.6663 3.70632L15.7887 2.01148C16.4068 2.20597 17.0063 2.45499 17.5803 2.75558L17.8861 5.45132C17.9122 5.68639 18.0245 5.90343 18.2014 6.06046C18.46 6.29034 18.7049 6.53521 18.9348 6.79381C19.0918 6.97068 19.3088 7.08303 19.5439 7.10913L22.2408 7.40892C22.5416 7.98282 22.7906 8.58239 22.9849 9.2005L21.2901 11.3193C21.1407 11.5058 21.0665 11.7414 21.0823 11.9798H21.0859Z" fill="currentColor"/>
</svg>
