<svg width="25" height="24" viewBox="0 0 25 24" fill="none" xmlns="http://www.w3.org/2000/svg">
<g clip-path="url(#clip0_11_209)">
<rect x="4.5" y="4" width="16" height="16" rx="2" stroke="currentColor" stroke-width="2"/>
<path d="M17.5 13H7.5V11H17.5M19.5 3H5.5C4.39 3 3.5 3.89 3.5 5V19C3.5 19.5304 3.71071 20.0391 4.08579 20.4142C4.46086 20.7893 4.96957 21 5.5 21H19.5C20.0304 21 20.5391 20.7893 20.9142 20.4142C21.2893 20.0391 21.5 19.5304 21.5 19V5C21.5 4.46957 21.2893 3.96086 20.9142 3.58579C20.5391 3.21071 20.0304 3 19.5 3Z" fill="currentColor"/>
</g>
<defs>
<clipPath id="clip0_11_209">
<rect width="24" height="24" fill="white" transform="translate(0.5)"/>
</clipPath>
</defs>
</svg>
