<svg width="24" height="25" viewBox="0 0 24 25" fill="none" xmlns="http://www.w3.org/2000/svg">
<mask id="path-1-outside-1_8_243" maskUnits="userSpaceOnUse" x="2.80798" y="3.26904" width="19" height="19" fill="black">
<rect fill="currentColor" x="2.80798" y="3.26904" width="19" height="19"/>
<path d="M19.485 20.654L13.223 14.392C12.723 14.818 12.148 15.1477 11.498 15.381C10.848 15.6144 10.1947 15.731 9.53798 15.731C7.93665 15.731 6.58132 15.1767 5.47198 14.068C4.36265 12.9594 3.80798 11.6044 3.80798 10.003C3.80798 8.40171 4.36198 7.04605 5.46998 5.93605C6.57798 4.82605 7.93265 4.27038 9.53398 4.26905C11.1353 4.26771 12.4913 4.82238 13.602 5.93305C14.7127 7.04371 15.268 8.39938 15.268 10C15.268 10.6947 15.145 11.367 14.899 12.017C14.653 12.667 14.3296 13.223 13.929 13.685L20.191 19.946L19.485 20.654ZM9.53898 14.73C10.8656 14.73 11.9857 14.2734 12.899 13.36C13.8123 12.4467 14.269 11.3264 14.269 9.99904C14.269 8.67171 13.8123 7.55171 12.899 6.63905C11.9857 5.72638 10.8656 5.26971 9.53898 5.26905C8.21232 5.26838 7.09198 5.72505 6.17798 6.63905C5.26398 7.55305 4.80732 8.67305 4.80798 9.99904C4.80865 11.325 5.26532 12.445 6.17798 13.359C7.09065 14.273 8.21065 14.7297 9.53798 14.729"/>
</mask>
<path d="M19.485 20.654L13.223 14.392C12.723 14.818 12.148 15.1477 11.498 15.381C10.848 15.6144 10.1947 15.731 9.53798 15.731C7.93665 15.731 6.58132 15.1767 5.47198 14.068C4.36265 12.9594 3.80798 11.6044 3.80798 10.003C3.80798 8.40171 4.36198 7.04605 5.46998 5.93605C6.57798 4.82605 7.93265 4.27038 9.53398 4.26905C11.1353 4.26771 12.4913 4.82238 13.602 5.93305C14.7127 7.04371 15.268 8.39938 15.268 10C15.268 10.6947 15.145 11.367 14.899 12.017C14.653 12.667 14.3296 13.223 13.929 13.685L20.191 19.946L19.485 20.654ZM9.53898 14.73C10.8656 14.73 11.9857 14.2734 12.899 13.36C13.8123 12.4467 14.269 11.3264 14.269 9.99904C14.269 8.67171 13.8123 7.55171 12.899 6.63905C11.9857 5.72638 10.8656 5.26971 9.53898 5.26905C8.21232 5.26838 7.09198 5.72505 6.17798 6.63905C5.26398 7.55305 4.80732 8.67305 4.80798 9.99904C4.80865 11.325 5.26532 12.445 6.17798 13.359C7.09065 14.273 8.21065 14.7297 9.53798 14.729" fill="currentColor"/>
<path d="M19.485 20.654L19.1314 21.0076L19.4855 21.3617L19.839 21.0071L19.485 20.654ZM13.223 14.392L13.5765 14.0385L13.2501 13.7121L12.8987 14.0115L13.223 14.392ZM9.53798 15.731V15.231V15.731ZM13.929 13.685L13.5512 13.3575L13.2461 13.7093L13.5755 14.0386L13.929 13.685ZM20.191 19.946L20.545 20.2991L20.8976 19.9455L20.5445 19.5925L20.191 19.946ZM19.485 20.654L19.8385 20.3005L13.5765 14.0385L13.223 14.392L12.8694 14.7456L19.1314 21.0076L19.485 20.654ZM13.223 14.392L12.8987 14.0115C12.447 14.3963 11.9252 14.6964 11.3291 14.9104L11.498 15.381L11.6669 15.8516C12.3707 15.599 12.999 15.2397 13.5472 14.7726L13.223 14.392ZM11.498 15.381L11.3291 14.9104C10.7304 15.1253 10.1341 15.231 9.53798 15.231V15.731V16.231C10.2552 16.231 10.9655 16.1034 11.6669 15.8516L11.498 15.381ZM9.53798 15.731V15.231C8.06608 15.231 6.83882 14.7272 5.82543 13.7144L5.47198 14.068L5.11854 14.4217C6.32382 15.6263 7.80722 16.231 9.53798 16.231V15.731ZM5.47198 14.068L5.82543 13.7144C4.81212 12.7017 4.30798 11.4748 4.30798 10.003H3.80798H3.30798C3.30798 11.7339 3.91318 13.2171 5.11854 14.4217L5.47198 14.068ZM3.80798 10.003H4.30798C4.30798 8.53104 4.81161 7.30335 5.82386 6.28928L5.46998 5.93605L5.11611 5.58281C3.91236 6.78874 3.30798 8.27238 3.30798 10.003H3.80798ZM5.46998 5.93605L5.82386 6.28928C6.83598 5.27533 8.06256 4.77027 9.5344 4.76905L9.53398 4.26905L9.53357 3.76905C7.80274 3.77049 6.31999 4.37676 5.11611 5.58281L5.46998 5.93605ZM9.53398 4.26905L9.5344 4.76905C11.0059 4.76782 12.2337 5.27183 13.2484 6.2866L13.602 5.93305L13.9555 5.57949C12.749 4.37292 11.2648 3.7676 9.53357 3.76905L9.53398 4.26905ZM13.602 5.93305L13.2484 6.2866C14.2633 7.30151 14.768 8.52915 14.768 10H15.268H15.768C15.768 8.26961 15.162 6.78591 13.9555 5.57949L13.602 5.93305ZM15.268 10H14.768C14.768 10.6342 14.656 11.2466 14.4314 11.8401L14.899 12.017L15.3666 12.194C15.634 11.4875 15.768 10.7552 15.768 10H15.268ZM14.899 12.017L14.4314 11.8401C14.2034 12.4424 13.9084 12.9456 13.5512 13.3575L13.929 13.685L14.3067 14.0126C14.7509 13.5005 15.1026 12.8917 15.3666 12.194L14.899 12.017ZM13.929 13.685L13.5755 14.0386L19.8375 20.2996L20.191 19.946L20.5445 19.5925L14.2825 13.3315L13.929 13.685ZM20.191 19.946L19.8369 19.593L19.1309 20.301L19.485 20.654L19.839 21.0071L20.545 20.2991L20.191 19.946ZM9.53898 14.73V15.23C10.9942 15.23 12.2426 14.7235 13.2525 13.7136L12.899 13.36L12.5454 13.0065C11.7287 13.8232 10.7371 14.23 9.53898 14.23V14.73ZM12.899 13.36L13.2525 13.7136C14.2625 12.7036 14.769 11.4549 14.769 9.99904H14.269H13.769C13.769 11.1979 13.3621 12.1898 12.5454 13.0065L12.899 13.36ZM14.269 9.99904H14.769C14.769 8.5432 14.2625 7.29471 13.2524 6.28536L12.899 6.63905L12.5456 6.99273C13.3621 7.80872 13.769 8.80023 13.769 9.99904H14.269ZM12.899 6.63905L13.2524 6.28536C12.2425 5.27623 10.9943 4.76978 9.53923 4.76905L9.53898 5.26905L9.53873 5.76905C10.737 5.76965 11.7288 6.17653 12.5456 6.99273L12.899 6.63905ZM9.53898 5.26905L9.53923 4.76905C8.08379 4.76831 6.83499 5.27493 5.82443 6.28549L6.17798 6.63905L6.53154 6.9926C7.34897 6.17516 8.34084 5.76844 9.53873 5.76905L9.53898 5.26905ZM6.17798 6.63905L5.82443 6.28549C4.81392 7.296 4.30725 8.54444 4.30798 9.9993L4.80798 9.99904L5.30798 9.99879C5.30738 8.80165 5.71405 7.81009 6.53154 6.9926L6.17798 6.63905ZM4.80798 9.99904L4.30798 9.9993C4.30871 11.4538 4.81521 12.7019 5.82417 13.7123L6.17798 13.359L6.53179 13.0058C5.71542 12.1882 5.30859 11.1963 5.30798 9.99879L4.80798 9.99904ZM6.17798 13.359L5.82417 13.7123C6.83355 14.7232 8.08219 15.2298 9.53823 15.229L9.53798 14.729L9.53773 14.229C8.33911 14.2296 7.34775 13.8229 6.53179 13.0058L6.17798 13.359Z" fill="currentColor" mask="url(#path-1-outside-1_8_243)"/>
</svg>
