<svg width="16" height="18" viewBox="0 0 16 18" fill="none" xmlns="http://www.w3.org/2000/svg">
<g clip-path="url(#clip0_48_2600)">
<path d="M8.94365 14.153L12.366 10.5959C12.4524 10.4995 12.5565 10.4222 12.6723 10.3686C12.788 10.315 12.913 10.2862 13.0397 10.2839C13.1664 10.2816 13.2923 10.3058 13.4098 10.3551C13.5273 10.4044 13.634 10.4779 13.7236 10.571C13.8132 10.6641 13.8839 10.7751 13.9313 10.8972C13.9788 11.0193 14.0021 11.1502 13.9999 11.2818C13.9976 11.4135 13.9699 11.5434 13.9183 11.6637C13.8667 11.784 13.7924 11.8923 13.6997 11.9821L8.66685 17.2132C8.48991 17.3968 8.25007 17.5 8 17.5C7.74993 17.5 7.51009 17.3968 7.33315 17.2132L2.30034 11.9821C2.20763 11.8923 2.13327 11.784 2.08169 11.6637C2.03012 11.5434 2.00238 11.4135 2.00015 11.2818C1.99791 11.1502 2.02122 11.0193 2.06868 10.8972C2.11614 10.7751 2.18678 10.6641 2.27639 10.571C2.366 10.4779 2.47273 10.4044 2.59024 10.3551C2.70774 10.3058 2.83359 10.2816 2.9603 10.2839C3.087 10.2862 3.21196 10.315 3.32771 10.3686C3.44347 10.4222 3.54765 10.4995 3.63404 10.5959L7.05635 14.153V1.48082C7.05635 1.22069 7.15577 0.971214 7.33274 0.787275C7.50971 0.603336 7.74973 0.5 8 0.5C8.25027 0.5 8.49029 0.603336 8.66726 0.787275C8.84423 0.971214 8.94365 1.22069 8.94365 1.48082V14.153Z" fill="currentColor"/>
</g>
<defs>
<clipPath id="clip0_48_2600">
<rect width="16" height="17" fill="currentColor" transform="translate(0 0.5)"/>
</clipPath>
</defs>
</svg>
