<svg width="17" height="17" viewBox="0 0 17 17" fill="none" xmlns="http://www.w3.org/2000/svg">
<path d="M4.13404 6.9041C4.04765 7.00047 3.94347 7.07776 3.82771 7.13137C3.71196 7.18497 3.587 7.2138 3.4603 7.21612C3.33359 7.21845 3.20774 7.19422 3.09024 7.14489C2.97273 7.09556 2.866 7.02214 2.77639 6.929C2.68678 6.83586 2.61614 6.72492 2.56868 6.60279C2.52122 6.48066 2.49791 6.34985 2.50015 6.21815C2.50238 6.08646 2.53012 5.95658 2.58169 5.83627C2.63327 5.71596 2.70763 5.60767 2.80034 5.51788L7.83315 0.286844C8.01009 0.103168 8.24993 0 8.5 0C8.75007 0 8.98991 0.103168 9.16685 0.286844L14.1997 5.51788C14.2924 5.60767 14.3667 5.71596 14.4183 5.83627C14.4699 5.95658 14.4976 6.08646 14.4999 6.21815C14.5021 6.34985 14.4788 6.48066 14.4313 6.60279C14.3839 6.72492 14.3132 6.83586 14.2236 6.929C14.134 7.02214 14.0273 7.09556 13.9098 7.14489C13.7923 7.19422 13.6664 7.21845 13.5397 7.21612C13.413 7.2138 13.288 7.18497 13.1723 7.13137C13.0565 7.07776 12.9524 7.00047 12.866 6.9041L9.44365 3.347V16.0192C9.44365 16.2793 9.34423 16.5288 9.16726 16.7127C8.99029 16.8967 8.75027 17 8.5 17C8.24973 17 8.00971 16.8967 7.83274 16.7127C7.65577 16.5288 7.55635 16.2793 7.55635 16.0192V3.347L4.13404 6.9041Z" fill="currentColor"/>
</svg>
