<svg width="19" height="20" viewBox="0 0 19 20" fill="none" xmlns="http://www.w3.org/2000/svg">
<path d="M11.1288 5.097C11.2846 5.25106 11.4959 5.33759 11.7161 5.33759C11.9363 5.33759 12.1475 5.25106 12.3033 5.097L13.1011 4.30726V15.4843C13.1011 15.7025 13.1887 15.9118 13.3445 16.066C13.5004 16.2203 13.7118 16.307 13.9322 16.307C14.1526 16.307 14.3639 16.2203 14.5198 16.066C14.6756 15.9118 14.7632 15.7025 14.7632 15.4843V4.30726L15.561 5.097C15.6371 5.17783 15.7288 5.24265 15.8307 5.28762C15.9327 5.33258 16.0427 5.35676 16.1543 5.3587C16.2659 5.36065 16.3767 5.34033 16.4802 5.29896C16.5837 5.25759 16.6777 5.196 16.7566 5.11788C16.8355 5.03977 16.8977 4.94672 16.9395 4.84428C16.9813 4.74185 17.0018 4.63213 16.9999 4.52167C16.9979 4.41121 16.9735 4.30228 16.9281 4.20137C16.8826 4.10046 16.8172 4.00963 16.7355 3.93432L14.5194 1.74059C14.3636 1.58653 14.1524 1.5 13.9322 1.5C13.7119 1.5 13.5007 1.58653 13.3449 1.74059L11.1288 3.93432C10.9732 4.08857 10.8858 4.29766 10.8858 4.51566C10.8858 4.73366 10.9732 4.94275 11.1288 5.097ZM5.89887 15.6927L6.69666 14.903C6.77274 14.8222 6.86449 14.7573 6.96642 14.7124C7.06836 14.6674 7.17841 14.6432 7.28999 14.6413C7.40157 14.6393 7.51241 14.6597 7.61589 14.701C7.71936 14.7424 7.81336 14.804 7.89228 14.8821C7.97119 14.9602 8.0334 15.0533 8.0752 15.1557C8.11699 15.2582 8.13752 15.3679 8.13555 15.4783C8.13358 15.5888 8.10916 15.6977 8.06374 15.7986C8.01832 15.8995 7.95283 15.9904 7.87118 16.0657L5.6551 18.2594C5.49928 18.4135 5.28806 18.5 5.06784 18.5C4.84762 18.5 4.6364 18.4135 4.48058 18.2594L2.2645 16.0657C2.18285 15.9904 2.11736 15.8995 2.07194 15.7986C2.02652 15.6977 2.0021 15.5888 2.00013 15.4783C1.99816 15.3679 2.01869 15.2582 2.06048 15.1557C2.10228 15.0533 2.16449 14.9602 2.2434 14.8821C2.32232 14.804 2.41632 14.7424 2.51979 14.701C2.62327 14.6597 2.73411 14.6393 2.84569 14.6413C2.95727 14.6432 3.06732 14.6674 3.16926 14.7124C3.27119 14.7573 3.36294 14.8222 3.43902 14.903L4.23681 15.6927V4.51566C4.23681 4.29748 4.32436 4.08824 4.48021 3.93396C4.63606 3.77968 4.84744 3.69301 5.06784 3.69301C5.28824 3.69301 5.49962 3.77968 5.65547 3.93396C5.81132 4.08824 5.89887 4.29748 5.89887 4.51566V15.6927Z" fill="currentColor"/>
</svg>
