<svg width="6" height="15" viewBox="0 0 6 15" fill="none" xmlns="http://www.w3.org/2000/svg">
<g clip-path="url(#clip0_202_464)">
<path d="M-4.76837e-06 5.50146C-4.76837e-06 5.36146 -4.87175e-06 5.29246 0.00799513 5.23446C0.0334495 5.05117 0.118024 4.88119 0.248875 4.75034C0.379725 4.61949 0.549703 4.53491 0.732995 4.50946C0.789995 4.50146 0.859995 4.50146 0.999995 4.50146C1.14 4.50146 1.209 4.50146 1.267 4.50946C1.45029 4.53491 1.62027 4.61949 1.75112 4.75034C1.88197 4.88119 1.96654 5.05117 1.992 5.23446C1.99999 5.29146 1.99999 5.36146 1.99999 5.50146C1.99999 5.64146 1.99999 5.71046 1.992 5.76846C1.96654 5.95175 1.88197 6.12173 1.75112 6.25258C1.62027 6.38343 1.45029 6.46801 1.267 6.49346C1.21 6.50146 1.14 6.50146 0.999995 6.50146C0.859995 6.50146 0.790995 6.50146 0.732995 6.49346C0.549703 6.46801 0.379725 6.38343 0.248875 6.25258C0.118024 6.12173 0.0334495 5.95175 0.00799513 5.76846C-4.87175e-06 5.71146 -4.76837e-06 5.64146 -4.76837e-06 5.50146ZM-4.76837e-06 9.50146C-4.76837e-06 9.36146 -4.87175e-06 9.29246 0.00799513 9.23446C0.0334495 9.05117 0.118024 8.88119 0.248875 8.75034C0.379725 8.61949 0.549703 8.53491 0.732995 8.50946C0.789995 8.50146 0.859995 8.50146 0.999995 8.50146C1.14 8.50146 1.209 8.50146 1.267 8.50946C1.45029 8.53491 1.62027 8.61949 1.75112 8.75034C1.88197 8.88119 1.96654 9.05117 1.992 9.23446C1.99999 9.29146 1.99999 9.36146 1.99999 9.50146C1.99999 9.64146 1.99999 9.71046 1.992 9.76846C1.96654 9.95175 1.88197 10.1217 1.75112 10.2526C1.62027 10.3834 1.45029 10.468 1.267 10.4935C1.21 10.5015 1.14 10.5015 0.999995 10.5015C0.859995 10.5015 0.790995 10.5015 0.732995 10.4935C0.549703 10.468 0.379725 10.3834 0.248875 10.2526C0.118024 10.1217 0.0334495 9.95175 0.00799513 9.76846C-4.87175e-06 9.71146 -4.76837e-06 9.64146 -4.76837e-06 9.50146ZM-4.76837e-06 13.5015C-4.76837e-06 13.3625 -4.87175e-06 13.2925 0.00799513 13.2345C0.0335985 13.0515 0.118116 12.8819 0.248752 12.7512C0.379388 12.6206 0.549031 12.5361 0.731995 12.5105C0.790995 12.5025 0.859996 12.5025 0.998996 12.5025C1.138 12.5025 1.209 12.5025 1.266 12.5105C1.44896 12.5361 1.6186 12.6206 1.74924 12.7512C1.87987 12.8819 1.96439 13.0515 1.98999 13.2345C1.99799 13.2925 1.998 13.3625 1.998 13.5015C1.998 13.6405 1.99799 13.7105 1.98999 13.7685C1.96439 13.9514 1.87987 14.1211 1.74924 14.2517C1.6186 14.3823 1.44896 14.4669 1.266 14.4925C1.208 14.5005 1.138 14.5005 0.998996 14.5005C0.859996 14.5005 0.789995 14.5005 0.731995 14.4925C0.549031 14.4669 0.379388 14.3823 0.248752 14.2517C0.118116 14.1211 0.0335985 13.9514 0.00799513 13.7685C-4.87175e-06 13.7105 -4.76837e-06 13.6405 -4.76837e-06 13.5015ZM3.99999 5.50146C3.99999 5.36146 4 5.29246 4.008 5.23446C4.03345 5.05117 4.11802 4.88119 4.24887 4.75034C4.37972 4.61949 4.5497 4.53491 4.73299 4.50946C4.78999 4.50146 4.85999 4.50146 4.99999 4.50146C5.13999 4.50146 5.20899 4.50146 5.26699 4.50946C5.45029 4.53491 5.62026 4.61949 5.75112 4.75034C5.88197 4.88119 5.96654 5.05117 5.99199 5.23446C5.99999 5.29146 5.99999 5.36146 5.99999 5.50146C5.99999 5.64146 5.99999 5.71046 5.99199 5.76846C5.96654 5.95175 5.88197 6.12173 5.75112 6.25258C5.62026 6.38343 5.45029 6.46801 5.26699 6.49346C5.20999 6.50146 5.13999 6.50146 4.99999 6.50146C4.85999 6.50146 4.79099 6.50146 4.73299 6.49346C4.5497 6.46801 4.37972 6.38343 4.24887 6.25258C4.11802 6.12173 4.03345 5.95175 4.008 5.76846C4 5.71146 3.99999 5.64146 3.99999 5.50146ZM3.99999 9.50146C3.99999 9.36146 4 9.29246 4.008 9.23446C4.03345 9.05117 4.11802 8.88119 4.24887 8.75034C4.37972 8.61949 4.5497 8.53491 4.73299 8.50946C4.78999 8.50146 4.85999 8.50146 4.99999 8.50146C5.13999 8.50146 5.20899 8.50146 5.26699 8.50946C5.45029 8.53491 5.62026 8.61949 5.75112 8.75034C5.88197 8.88119 5.96654 9.05117 5.99199 9.23446C5.99999 9.29146 5.99999 9.36146 5.99999 9.50146C5.99999 9.64146 5.99999 9.71046 5.99199 9.76846C5.96654 9.95175 5.88197 10.1217 5.75112 10.2526C5.62026 10.3834 5.45029 10.468 5.26699 10.4935C5.20999 10.5015 5.13999 10.5015 4.99999 10.5015C4.85999 10.5015 4.79099 10.5015 4.73299 10.4935C4.5497 10.468 4.37972 10.3834 4.24887 10.2526C4.11802 10.1217 4.03345 9.95175 4.008 9.76846C4 9.71146 3.99999 9.64146 3.99999 9.50146ZM3.99999 13.5015C3.99999 13.3625 4 13.2925 4.008 13.2345C4.0336 13.0515 4.11812 12.8819 4.24875 12.7512C4.37939 12.6206 4.54903 12.5361 4.732 12.5105C4.791 12.5025 4.85999 12.5025 4.99899 12.5025C5.13899 12.5025 5.20899 12.5025 5.26599 12.5105C5.44896 12.5361 5.6186 12.6206 5.74924 12.7512C5.87987 12.8819 5.96439 13.0515 5.98999 13.2345C5.99799 13.2925 5.99799 13.3625 5.99799 13.5015C5.99799 13.6405 5.99799 13.7105 5.98999 13.7685C5.96439 13.9514 5.87987 14.1211 5.74924 14.2517C5.6186 14.3823 5.44896 14.4669 5.26599 14.4925C5.20799 14.5005 5.13799 14.5005 4.99899 14.5005C4.85999 14.5005 4.79 14.5005 4.732 14.4925C4.54903 14.4669 4.37939 14.3823 4.24875 14.2517C4.11812 14.1211 4.0336 13.9514 4.008 13.7685C4 13.7105 3.99999 13.6405 3.99999 13.5015Z" fill="currentColor"/>
<path d="M0.00793886 1.23276C-6.10352e-05 1.29076 -6.10352e-05 1.35976 -6.10352e-05 1.49976C-6.10352e-05 1.63976 -6.10352e-05 1.70976 0.00793886 1.76676C0.0333932 1.95005 0.117968 2.12003 0.248818 2.25088C0.379669 2.38173 0.549647 2.4663 0.732939 2.49176C0.790939 2.49976 0.859939 2.49976 0.999939 2.49976C1.13994 2.49976 1.20994 2.49976 1.26694 2.49176C1.45023 2.4663 1.62021 2.38173 1.75106 2.25088C1.88191 2.12003 1.96648 1.95005 1.99194 1.76676C1.99994 1.70876 1.99994 1.63976 1.99994 1.49976C1.99994 1.35976 1.99994 1.28976 1.99194 1.23276C1.96648 1.04946 1.88191 0.879486 1.75106 0.748635C1.62021 0.617785 1.45023 0.53321 1.26694 0.507756C1.20894 0.499756 1.13994 0.499756 0.999939 0.499756C0.859939 0.499756 0.789939 0.499756 0.732939 0.507756C0.549647 0.53321 0.379669 0.617785 0.248818 0.748635C0.117968 0.879486 0.0333932 1.04946 0.00793886 1.23276Z" fill="currentColor"/>
<path d="M4.00794 1.23276C3.99994 1.29076 3.99994 1.35976 3.99994 1.49976C3.99994 1.63976 3.99994 1.70976 4.00794 1.76676C4.03339 1.95005 4.11797 2.12003 4.24882 2.25088C4.37967 2.38173 4.54965 2.4663 4.73294 2.49176C4.79094 2.49976 4.85994 2.49976 4.99994 2.49976C5.13994 2.49976 5.20994 2.49976 5.26694 2.49176C5.45023 2.4663 5.62021 2.38173 5.75106 2.25088C5.88191 2.12003 5.96648 1.95005 5.99194 1.76676C5.99994 1.70876 5.99994 1.63976 5.99994 1.49976C5.99994 1.35976 5.99994 1.28976 5.99194 1.23276C5.96648 1.04946 5.88191 0.879486 5.75106 0.748635C5.62021 0.617785 5.45023 0.53321 5.26694 0.507756C5.20894 0.499756 5.13994 0.499756 4.99994 0.499756C4.85994 0.499756 4.78994 0.499756 4.73294 0.507756C4.54965 0.53321 4.37967 0.617785 4.24882 0.748635C4.11797 0.879486 4.03339 1.04946 4.00794 1.23276Z" fill="currentColor"/>
</g>
<defs>
<clipPath id="clip0_202_464">
<rect width="6.00006" height="14.0007" fill="currentColor" transform="translate(-6.10352e-05 0.499756)"/>
</clipPath>
</defs>
</svg>
